<?xml version="1.0" standalone="no"?>
<!DOCTYPE svg PUBLIC "-//W3C//DTD SVG 20010904//EN"
 "http://www.w3.org/TR/2001/REC-SVG-20010904/DTD/svg10.dtd">
<svg version="1.0" xmlns="http://www.w3.org/2000/svg"
 width="512.000000pt" height="512.000000pt" viewBox="0 0 512.000000 512.000000"
 preserveAspectRatio="xMidYMid meet">
<metadata>
Created by potrace 1.14, written by Peter Selinger 2001-2017
</metadata>
<g transform="translate(0.000000,512.000000) scale(0.100000,-0.100000)"
fill="#000000" stroke="none">
<path d="M2500 4857 c-112 -42 -293 -231 -417 -436 -20 -34 -34 -49 -38 -40
-2 8 -17 52 -33 100 -36 104 -53 141 -70 147 -19 6 -98 -80 -164 -178 -257
-388 -500 -951 -552 -1280 -40 -253 32 -456 231 -657 130 -131 319 -257 500
-334 119 -51 199 -75 333 -101 58 -11 114 -21 126 -24 21 -4 21 -5 21 -389 l1
-386 -28 23 c-212 175 -353 271 -565 389 -69 38 -308 157 -375 187 -284 126
-429 180 -650 243 -69 20 -226 46 -288 48 -47 2 -62 -1 -62 -12 0 -41 182
-272 393 -501 350 -379 821 -774 1108 -930 156 -85 339 -127 450 -104 10 2 15
-13 19 -49 6 -57 34 -96 79 -110 80 -26 161 33 161 117 l0 35 78 1 c163 1 384
101 632 285 86 63 296 232 345 277 17 15 70 64 120 107 101 91 282 269 369
365 32 36 75 83 95 105 149 162 301 368 301 406 0 12 -118 8 -200 -7 -360 -64
-1033 -355 -1425 -617 -100 -67 -243 -176 -264 -201 -8 -10 -23 -22 -33 -27
-17 -9 -18 5 -18 369 l0 378 33 2 c120 9 338 70 471 132 235 110 469 296 579
463 166 251 160 503 -23 962 -80 200 -91 224 -181 405 -142 283 -306 539 -382
594 -37 27 -44 18 -87 -115 l-36 -111 -50 78 c-102 160 -241 311 -337 367 -56
33 -119 42 -167 24z"/>
</g>
</svg>
